<!DOCTYPE svg PUBLIC "-//W3C//DTD SVG 20010904//EN" "http://www.w3.org/TR/2001/REC-SVG-20010904/DTD/svg10.dtd">
<svg version="1.0" xmlns="http://www.w3.org/2000/svg" width="700px" height="525px" viewBox="0 0 7000 5250" preserveAspectRatio="xMidYMid meet">
<g id="layer101" fill="#093e81" stroke="none">
 <path d="M3485 5139 c-184 -93 -362 -196 -488 -283 -49 -34 -98 -68 -111 -76 -269 -183 -545 -486 -666 -730 -39 -78 -100 -250 -105 -298 -2 -15 -8 -45 -13 -66 -14 -51 -9 -304 7 -381 16 -80 49 -187 77 -257 13 -32 24 -59 24 -60 0 -2 -89 -3 -197 -3 -216 0 -371 -11 -431 -29 -9 -3 -34 -8 -54 -10 -21 -3 -46 -10 -57 -16 -11 -5 -29 -10 -41 -10 -32 0 -204 -53 -320 -100 -511 -204 -899 -573 -1019 -970 -35 -115 -51 -183 -49 -202 1 -13 -1 -57 -6 -98 -13 -122 -14 -228 -3 -350 6 -63 10 -126 9 -140 -1 -14 6 -56 15 -95 9 -38 17 -81 19 -95 6 -55 54 -231 84 -310 12 -30 28 -74 36 -97 29 -83 83 -181 104 -188 29 -9 52 12 40 35 -21 39 -68 198 -76 254 -2 16 -9 47 -15 70 -7 22 -13 61 -14 86 -1 25 -8 83 -15 130 -17 110 -17 398 0 520 7 52 14 111 15 130 1 19 8 55 15 80 7 25 13 54 15 65 10 80 134 292 229 394 37 40 153 135 216 178 145 98 394 205 595 254 112 28 282 59 350 64 28 2 64 6 80 10 63 12 435 16 493 5 31 -7 71 -13 87 -15 28 -3 98 -21 170 -43 45 -14 205 -107 240 -140 17 -15 48 -50 69 -76 l39 -49 -154 6 c-85 3 -166 10 -181 16 -14 5 -35 9 -45 9 -35 -2 -225 43 -263 63 -8 4 -42 18 -75 30 -33 12 -95 40 -137 61 -89 44 -94 45 -108 19 -20 -38 134 -201 260 -275 64 -37 146 -76 171 -81 10 -2 27 -9 38 -15 12 -6 21 -8 21 -6 0 3 12 1 28 -5 24 -10 83 -21 167 -34 58 -8 171 -17 265 -20 52 -2 99 -4 103 -4 15 -2 4 -153 -15 -215 -53 -170 -145 -289 -326 -424 -126 -94 -435 -238 -612 -288 -246 -68 -314 -85 -355 -90 -44 -5 -119 -26 -130 -36 -16 -15 20 -40 66 -44 107 -11 402 -13 479 -3 47 6 108 12 135 14 28 3 59 6 70 9 11 2 72 11 135 21 63 9 129 22 145 29 17 6 35 11 40 11 16 1 154 44 225 71 108 41 250 114 344 176 49 32 89 58 91 56 1 -2 12 -29 25 -61 25 -63 58 -112 134 -200 45 -53 92 -94 221 -192 141 -109 471 -273 773 -385 98 -36 513 -170 548 -176 25 -4 252 -65 295 -79 26 -8 55 -15 65 -15 10 0 31 -4 48 -9 39 -12 125 -32 151 -36 11 -1 27 -5 35 -9 8 -3 29 -8 45 -9 17 -2 55 -9 85 -16 30 -7 74 -16 98 -22 23 -5 54 -9 68 -9 14 0 33 -4 42 -9 9 -5 35 -12 57 -15 22 -3 56 -8 76 -12 25 -4 39 -1 49 10 16 20 -2 46 -34 46 -11 0 -73 14 -136 30 -63 17 -126 32 -140 35 -52 12 -421 129 -475 151 -16 7 -84 34 -150 60 -537 212 -984 519 -1220 839 -170 230 -294 612 -238 731 22 44 51 54 168 57 126 3 166 20 307 128 57 44 138 105 180 135 43 31 81 60 84 66 4 5 -1 17 -10 26 -13 13 -22 14 -48 5 -18 -6 -73 -23 -123 -37 -49 -15 -106 -32 -125 -38 -19 -6 -45 -12 -57 -14 -12 -1 -27 -5 -32 -9 -6 -3 -29 -8 -51 -11 -23 -3 -52 -9 -66 -14 -55 -21 -120 -12 -196 28 -67 35 -117 70 -338 239 -165 126 -401 390 -522 585 -96 155 -185 373 -193 473 -2 17 -8 50 -14 75 -14 58 -14 202 0 271 6 30 12 68 14 84 9 84 99 294 178 416 148 231 399 463 749 693 134 88 146 99 128 121 -7 8 -15 15 -19 15 -3 -1 -78 -37 -166 -81z"/>
 <path d="M4816 4521 c-3 -4 -38 -20 -78 -36 -40 -16 -90 -39 -110 -52 -21 -13 -40 -23 -42 -23 -3 0 -27 -13 -53 -30 -60 -38 -73 -38 -73 0 0 40 -25 99 -45 107 -11 3 -26 -4 -42 -19 -21 -22 -23 -29 -13 -48 6 -12 9 -27 7 -35 -3 -7 -2 -29 3 -48 6 -27 4 -39 -6 -48 -27 -23 -27 -50 1 -79 l28 -29 -5 -131 c-6 -152 0 -166 77 -196 124 -47 395 68 395 168 0 49 -107 120 -267 178 -35 13 -63 26 -63 29 0 7 180 128 255 171 49 29 95 70 95 86 0 23 -53 53 -64 35z m-134 -447 c46 -29 47 -50 3 -75 -39 -23 -86 -33 -159 -34 -41 0 -61 4 -64 14 -3 9 2 11 18 6 15 -5 28 -1 45 15 l23 21 -19 60 c-11 34 -19 65 -19 69 0 11 117 -42 172 -76z"/>
 <path d="M3322 4467 c-21 -22 -24 -35 -23 -99 0 -69 24 -238 35 -257 3 -5 8 -26 12 -47 10 -63 33 -109 67 -135 113 -84 129 -90 237 -90 75 0 87 3 103 22 19 23 15 52 -9 80 -12 13 -31 15 -113 11 -92 -4 -99 -3 -120 19 -11 12 -21 29 -21 36 0 7 -9 39 -20 70 -11 31 -18 58 -16 61 2 2 14 -2 26 -8 31 -16 56 -21 132 -22 42 -1 73 4 83 12 18 15 20 64 3 78 -7 5 -52 10 -100 10 -48 0 -92 3 -98 7 -6 3 -23 9 -38 11 -37 7 -39 10 -55 89 l-14 70 46 3 c51 4 145 -13 204 -36 35 -13 40 -13 55 2 22 21 9 43 -44 73 -62 35 -123 51 -219 59 -87 6 -91 5 -113 -19z"/>
 <path d="M5232 4478 c-16 -16 -15 -24 10 -85 12 -29 19 -56 15 -59 -4 -4 -24 9 -46 29 -48 43 -111 77 -144 77 -30 0 -73 -33 -92 -71 -18 -35 -31 -36 -61 -8 -29 27 -54 19 -54 -19 0 -20 11 -38 38 -63 61 -56 95 -79 114 -79 32 0 68 45 68 84 0 41 23 60 55 44 11 -6 57 -46 102 -89 75 -72 86 -79 123 -79 63 0 73 40 34 135 -6 14 8 7 45 -23 64 -50 114 -57 149 -19 12 13 22 28 22 34 0 7 7 18 15 27 14 13 22 10 78 -29 145 -103 254 -159 284 -148 22 9 35 41 24 61 -5 10 -50 42 -100 71 -109 65 -128 99 -66 115 31 8 133 -40 180 -83 49 -46 207 -161 220 -161 7 0 18 7 25 15 8 9 24 13 46 10 26 -3 39 2 64 25 50 47 38 105 -38 183 -78 80 -160 110 -227 83 -40 -17 -41 -20 -54 -95 -1 -3 -7 3 -13 12 -23 29 -148 89 -203 96 -45 6 -62 4 -97 -14 -28 -14 -44 -29 -46 -43 -4 -27 -17 -28 -49 -2 -43 33 -77 26 -119 -25 -20 -25 -41 -45 -48 -45 -6 1 -23 11 -37 23 -135 115 -152 127 -178 127 -15 0 -32 -5 -39 -12z m1058 -160 c35 -58 -5 -67 -62 -13 -25 22 -38 43 -38 60 l0 25 40 -20 c23 -12 49 -35 60 -52z"/>
 <path d="M6502 4478 c-17 -17 -15 -35 8 -95 22 -59 16 -66 -21 -27 -37 40 -137 88 -155 74 -11 -10 4 -30 84 -110 129 -131 167 -160 207 -160 18 0 38 7 45 15 12 15 9 73 -6 109 -9 23 1 18 57 -26 63 -48 124 -36 159 33 18 35 23 38 41 28 28 -15 49 -4 49 24 0 26 -29 57 -74 81 -36 19 -57 9 -107 -47 -35 -40 -37 -41 -60 -25 -13 8 -55 43 -93 77 -70 62 -107 76 -134 49z"/>
 <path d="M3864 4421 c-18 -11 -39 -29 -48 -42 -14 -20 -18 -21 -40 -10 -13 8 -29 10 -35 7 -16 -11 -2 -57 27 -88 14 -15 27 -42 29 -60 1 -18 9 -49 17 -68 7 -19 19 -53 26 -75 20 -62 97 -186 143 -227 66 -62 122 -47 120 32 -2 85 -56 199 -155 326 -52 67 -57 83 -30 107 30 28 66 30 110 8 53 -27 71 -26 81 2 13 34 4 45 -58 76 -71 35 -143 40 -187 12z m126 -410 c0 -3 -9 7 -19 23 -11 17 -17 34 -14 39 5 8 33 -44 33 -62z"/>
 <path d="M4988 4083 c-9 -10 -14 -27 -12 -38 3 -22 55 -68 97 -86 25 -10 31 -9 49 9 21 21 21 21 3 62 -28 63 -103 92 -137 53z"/>
 <path d="M6225 4080 c-10 -17 4 -29 69 -59 34 -15 79 -43 100 -61 39 -35 57 -34 79 2 16 25 1 46 -52 72 -98 50 -181 70 -196 46z"/>
 <path d="M4473 3655 c-40 -17 -45 -55 -10 -77 28 -18 121 -54 167 -66 62 -15 52 -39 -60 -142 l-100 -92 0 -51 c0 -42 5 -56 36 -93 43 -54 154 -120 240 -144 64 -19 65 -19 85 1 43 43 18 85 -85 138 -61 33 -85 38 -102 21 -8 -8 -15 -6 -23 4 -34 41 -17 77 79 171 64 62 110 133 110 168 0 11 -87 79 -150 118 -26 16 -135 59 -148 59 -4 -1 -22 -7 -39 -15z"/>
 <path d="M3815 3642 c-11 -2 -32 -15 -46 -29 -25 -23 -27 -30 -23 -86 6 -78 33 -245 45 -275 5 -13 9 -34 9 -48 0 -31 31 -92 62 -121 12 -12 49 -37 81 -56 53 -32 64 -35 143 -36 101 -1 124 8 124 50 0 63 -9 68 -121 66 -68 -2 -107 2 -119 10 -14 10 -70 154 -70 180 0 3 12 -3 27 -12 34 -23 195 -34 218 -15 18 15 20 66 3 77 -7 4 -42 9 -78 9 -124 2 -199 22 -199 51 0 16 -9 61 -22 113 -3 12 8 16 47 18 45 3 87 -5 211 -37 22 -6 38 -5 50 4 17 13 17 15 -7 40 -38 41 -131 82 -204 90 -83 10 -113 11 -131 7z"/>
 <path d="M3334 3626 c-17 -13 -19 -26 -17 -133 1 -65 7 -139 14 -165 7 -33 8 -52 0 -67 -17 -31 -13 -81 12 -141 34 -84 41 -92 90 -110 38 -15 49 -16 64 -5 15 12 16 19 5 76 -7 35 -14 74 -16 86 -2 12 -11 44 -19 70 -8 26 -15 57 -15 68 -1 11 -7 55 -15 97 -8 43 -12 107 -10 142 2 43 -1 67 -9 73 -24 19 -64 23 -84 9z"/>
 <path d="M3553 3609 c-12 -4 -26 -16 -32 -27 -8 -15 -4 -25 22 -50 40 -39 76 -41 114 -8 l28 25 -25 25 c-31 31 -77 46 -107 35z"/>
 <path d="M4238 3591 l-32 -28 34 -32 c42 -38 79 -40 117 -7 l28 25 -25 25 c-14 15 -40 30 -58 36 -29 8 -37 5 -64 -19z"/>
 <path d="M4865 3598 c-33 -26 -32 -41 6 -72 38 -32 70 -33 104 -3 40 34 20 65 -56 87 -22 7 -34 4 -54 -12z"/>
 </g>
<g id="layer102" fill="#fafafa" stroke="none">
 <path d="M0 2625 l0 -2625 3500 0 3500 0 0 2625 0 2625 -3500 0 -3500 0 0 -2625z m3660 2566 c0 -5 -53 -44 -117 -86 -430 -283 -700 -554 -849 -855 -45 -90 -93 -225 -99 -275 -2 -16 -8 -54 -14 -84 -14 -69 -14 -213 0 -271 6 -25 12 -58 14 -75 8 -100 97 -318 193 -473 123 -199 373 -478 542 -606 41 -31 118 -89 170 -128 130 -99 227 -148 290 -148 27 0 60 4 74 10 14 5 43 11 66 14 22 3 45 8 51 11 5 4 20 8 32 9 12 2 38 8 57 14 19 6 76 23 125 37 50 15 100 31 113 36 28 11 52 12 52 1 0 -4 -33 -31 -72 -59 -40 -29 -119 -88 -176 -131 -142 -110 -181 -126 -310 -129 -120 -3 -153 -16 -181 -71 -62 -121 58 -499 234 -737 244 -331 697 -644 1240 -859 66 -26 134 -53 150 -60 54 -22 423 -139 475 -151 14 -3 77 -18 140 -35 63 -16 125 -30 138 -30 12 0 22 -5 22 -11 0 -7 -14 -9 -37 -5 -21 3 -56 9 -78 12 -22 3 -48 10 -57 15 -9 5 -28 9 -42 9 -14 0 -45 4 -68 9 -24 6 -68 15 -98 22 -30 7 -68 14 -85 16 -16 1 -37 6 -45 9 -8 4 -24 8 -35 9 -26 4 -112 24 -151 36 -17 5 -38 9 -48 9 -10 0 -39 7 -65 15 -43 14 -270 75 -295 79 -35 6 -450 140 -548 176 -302 112 -632 276 -773 385 -203 156 -280 241 -335 372 -36 86 -50 96 -87 62 -59 -55 -251 -159 -393 -213 -71 -27 -209 -70 -225 -71 -5 0 -23 -5 -40 -11 -16 -7 -82 -20 -145 -29 -63 -10 -124 -19 -135 -21 -11 -3 -42 -6 -70 -9 -27 -2 -88 -8 -135 -14 -109 -14 -510 -5 -526 12 -5 5 68 26 111 31 41 5 109 22 355 90 91 26 253 91 377 152 385 189 594 438 602 716 3 97 -2 100 -127 104 -95 2 -207 10 -267 19 -84 13 -143 24 -167 34 -16 6 -28 8 -28 5 0 -2 -13 2 -29 10 -16 9 -30 13 -32 11 -10 -9 -196 95 -258 145 -79 64 -167 168 -153 182 6 6 40 -6 88 -30 44 -21 106 -49 139 -61 33 -12 67 -26 75 -30 38 -20 228 -65 263 -63 10 0 30 -4 45 -9 14 -6 93 -13 174 -16 186 -7 194 -3 137 70 -23 28 -59 67 -82 88 -47 40 -194 126 -241 141 -73 22 -143 40 -171 43 -16 2 -56 8 -87 15 -58 11 -430 7 -493 -5 -16 -4 -52 -8 -80 -10 -111 -9 -319 -52 -470 -98 -414 -126 -746 -377 -882 -667 -44 -95 -55 -123 -58 -145 -2 -11 -8 -40 -15 -65 -7 -25 -14 -61 -15 -80 -1 -19 -8 -78 -15 -130 -17 -122 -17 -410 0 -520 7 -47 14 -105 15 -130 1 -25 7 -64 14 -86 6 -23 13 -54 15 -70 8 -58 55 -215 77 -256 9 -17 8 -19 -8 -16 -19 3 -63 80 -94 163 -10 28 -28 75 -39 105 -31 79 -78 255 -84 310 -2 14 -10 57 -19 95 -9 39 -16 81 -15 95 1 14 -3 77 -9 140 -11 122 -10 228 3 350 5 41 7 85 6 98 -2 19 14 87 49 202 119 394 491 748 999 950 116 47 288 100 320 100 12 0 30 5 41 11 11 5 39 12 61 15 23 3 45 7 50 10 4 3 29 7 55 10 27 3 62 8 78 11 17 3 135 7 264 9 129 2 239 8 243 12 6 6 -1 34 -15 68 -29 72 -62 178 -78 259 -16 77 -21 330 -7 381 5 21 11 51 13 66 5 48 66 220 105 298 120 243 371 519 647 710 233 162 368 243 598 359 166 83 175 87 175 72z m1195 -707 c0 -12 -18 -30 -48 -49 -117 -73 -286 -186 -292 -195 -11 -18 13 -36 78 -60 160 -58 247 -114 247 -161 0 -25 -47 -77 -90 -99 -51 -26 -176 -60 -220 -60 -42 0 -119 34 -121 52 -1 7 -1 72 1 145 2 132 2 132 -25 157 -28 26 -28 53 -1 75 10 9 12 21 6 48 -5 19 -6 41 -3 48 2 8 -1 23 -7 35 -12 23 1 50 25 50 15 0 35 -51 35 -90 0 -43 24 -57 63 -37 32 17 105 58 142 81 11 7 53 25 93 41 40 16 75 32 78 36 9 15 39 2 39 -17z m-1287 -40 c70 -23 122 -53 122 -70 0 -12 -6 -15 -22 -9 -139 44 -265 58 -285 33 -14 -18 13 -148 35 -170 9 -9 29 -19 44 -22 15 -2 33 -8 39 -11 6 -4 51 -7 100 -7 l89 0 0 -29 c0 -31 0 -31 -85 -31 -61 0 -91 6 -128 23 -45 21 -53 1 -28 -70 12 -34 21 -67 21 -75 0 -8 14 -28 30 -46 l30 -32 101 4 c98 5 101 4 110 -18 15 -40 2 -53 -54 -56 -93 -5 -153 8 -210 45 -80 54 -98 79 -111 161 -4 21 -9 42 -12 47 -10 17 -35 186 -35 250 -1 39 4 75 12 88 13 22 18 23 104 17 50 -4 109 -14 133 -22z m1767 -4 c21 -17 43 -36 49 -43 18 -22 93 -77 104 -77 6 0 28 20 49 45 43 51 74 58 117 24 31 -25 53 -19 66 16 21 56 119 62 220 13 36 -17 77 -42 93 -56 35 -33 53 -18 56 50 1 22 56 40 100 32 102 -19 201 -117 201 -199 0 -36 -36 -65 -75 -60 -21 3 -37 -1 -45 -10 -7 -8 -18 -15 -25 -15 -13 0 -171 115 -220 161 -16 15 -58 41 -92 58 -67 34 -98 34 -129 -1 -17 -17 -17 -22 -4 -45 8 -14 54 -49 102 -77 91 -53 107 -71 86 -92 -24 -23 -124 27 -285 140 -69 50 -82 48 -112 -15 -12 -25 -23 -35 -45 -37 -44 -5 -68 4 -106 42 -58 59 -80 45 -54 -33 21 -64 14 -81 -29 -81 -29 0 -47 13 -118 78 -109 102 -119 107 -153 81 -19 -15 -26 -30 -26 -54 0 -37 -21 -65 -50 -65 -29 0 -129 91 -130 118 0 27 11 28 35 2 24 -27 41 -25 62 6 35 51 62 74 88 74 35 0 97 -33 145 -77 64 -57 89 -30 50 56 -11 24 -20 49 -20 57 0 25 55 16 95 -16z m1301 -31 c115 -102 108 -100 161 -46 25 26 50 48 56 48 24 3 42 -3 69 -23 32 -22 40 -65 11 -53 -32 12 -36 10 -59 -25 -38 -56 -43 -60 -80 -60 -25 0 -49 10 -81 35 -26 20 -51 34 -57 32 -11 -4 -11 -14 0 -94 l6 -43 -35 0 c-23 0 -46 10 -72 30 -40 32 -218 210 -209 210 16 0 123 -62 143 -84 25 -27 46 -33 56 -17 3 6 -4 34 -15 63 -28 73 -26 88 9 88 20 0 47 -17 97 -61z m-2594 -15 c53 -27 60 -34 48 -54 -7 -12 -17 -10 -58 9 -33 16 -57 21 -73 16 -30 -9 -79 -54 -79 -73 0 -8 21 -42 48 -76 113 -145 161 -259 153 -358 -2 -29 -51 -22 -88 12 -38 35 -115 159 -133 215 -7 22 -19 56 -26 75 -8 19 -16 50 -18 68 -1 19 -14 47 -28 62 -23 26 -43 70 -32 70 2 0 13 -6 25 -12 18 -12 23 -9 47 18 15 18 36 37 47 43 32 18 115 10 167 -15z m1034 -329 c29 -19 50 -73 36 -87 -24 -24 -124 44 -117 79 2 10 4 19 4 21 3 8 60 -1 77 -13z m1259 -14 c90 -33 125 -54 125 -73 0 -33 -28 -32 -67 3 -21 18 -64 45 -98 60 -45 21 -54 28 -35 29 14 0 48 -8 75 -19z m-1758 -422 c58 -22 133 -66 187 -112 l29 -24 -17 -44 c-11 -27 -47 -74 -96 -124 -105 -108 -111 -123 -75 -179 19 -29 27 -31 53 -15 20 13 61 -1 130 -45 43 -27 55 -59 31 -83 -17 -17 -124 18 -207 66 -90 53 -122 94 -122 159 l0 49 100 92 c55 51 100 100 100 110 0 23 -28 47 -65 55 -38 9 -136 46 -152 59 -20 15 -15 37 10 47 31 12 30 12 94 -11z m-632 -14 c78 -9 204 -67 194 -90 -5 -12 -29 -9 -89 12 -25 8 -82 17 -126 20 -75 5 -83 4 -93 -14 -5 -11 -8 -23 -4 -26 6 -6 23 -80 25 -107 3 -48 82 -74 226 -73 l62 0 0 -30 0 -30 -93 5 c-63 3 -101 10 -119 22 -21 14 -27 14 -37 2 -9 -11 -6 -31 13 -90 43 -131 41 -129 186 -130 l95 -1 0 -35 0 -35 -90 -2 c-95 -1 -112 4 -193 59 -45 31 -82 91 -82 132 0 14 -4 35 -9 48 -12 30 -39 197 -45 275 -3 49 -1 65 13 76 27 25 47 26 166 12z m-549 -5 c11 0 14 -14 11 -65 -2 -36 2 -100 10 -143 8 -42 14 -86 15 -97 0 -11 7 -42 15 -68 8 -26 17 -58 19 -70 2 -12 9 -48 16 -80 15 -73 6 -82 -51 -54 -37 19 -46 31 -67 82 -26 65 -30 115 -13 146 8 15 7 34 0 67 -14 58 -19 262 -7 280 4 7 15 11 23 8 8 -3 21 -6 29 -6z m254 -45 c14 -15 13 -18 -4 -31 -29 -21 -70 -17 -94 9 -33 35 -3 61 53 46 16 -5 36 -16 45 -24z m700 0 c14 -15 13 -18 -4 -31 -29 -21 -70 -17 -95 10 l-22 24 21 15 c25 17 73 8 100 -18z m620 0 c14 -15 13 -18 -4 -31 -26 -18 -56 -18 -84 2 -26 18 -28 39 -5 52 20 12 71 -1 93 -23z"/>
 <path d="M4494 4165 c-3 -8 3 -44 14 -80 16 -53 17 -67 6 -76 -7 -6 -22 -8 -32 -5 -11 4 -24 0 -32 -9 -11 -13 -10 -19 6 -36 16 -18 27 -20 79 -16 102 9 139 21 183 60 29 27 28 40 -8 71 -26 21 -189 106 -206 106 -2 0 -7 -7 -10 -15z"/>
 <path d="M6180 4395 c-20 -25 -4 -83 29 -99 15 -8 33 -22 40 -30 17 -20 40 -20 62 0 17 16 17 18 -1 53 -24 49 -111 99 -130 76z"/>
 <path d="M3915 4129 c-4 -5 1 -19 10 -29 9 -10 14 -23 11 -28 -6 -10 40 -82 54 -82 30 0 17 58 -28 118 -26 34 -37 39 -47 21z"/>
 </g>

</svg>